<svg width="128" height="128" viewBox="0 0 128 128" fill="none" xmlns="http://www.w3.org/2000/svg">
<g clip-path="url(#clip0_1_2)">
<path d="M86.2273 47.5H66.3182C65.9545 44.9242 65.2121 42.6364 64.0909 40.6364C62.9697 38.6061 61.5303 36.8788 59.7727 35.4545C58.0152 34.0303 55.9848 32.9394 53.6818 32.1818C51.4091 31.4242 48.9394 31.0455 46.2727 31.0455C41.4545 31.0455 37.2576 32.2424 33.6818 34.6364C30.1061 37 27.3333 40.4545 25.3636 45C23.3939 49.5151 22.4091 55 22.4091 61.4545C22.4091 68.0909 23.3939 73.6667 25.3636 78.1818C27.3636 82.697 30.1515 86.1061 33.7273 88.4091C37.303 90.7121 41.4394 91.8636 46.1364 91.8636C48.7727 91.8636 51.2121 91.5152 53.4545 90.8182C55.7273 90.1212 57.7424 89.1061 59.5 87.7727C61.2576 86.4091 62.7121 84.7576 63.8636 82.8182C65.0455 80.8788 65.8636 78.6667 66.3182 76.1818L86.2273 76.2727C85.7121 80.5455 84.4242 84.6667 82.3636 88.6364C80.3333 92.5758 77.5909 96.1061 74.1364 99.2273C70.7121 102.318 66.6212 104.773 61.8636 106.591C57.1364 108.379 51.7879 109.273 45.8182 109.273C37.5152 109.273 30.0909 107.394 23.5455 103.636C17.0303 99.8788 11.8788 94.4394 8.09091 87.3182C4.33333 80.197 2.45455 71.5758 2.45455 61.4545C2.45455 51.303 4.36364 42.6667 8.18182 35.5455C12 28.4242 17.1818 23 23.7273 19.2727C30.2727 15.5151 37.6364 13.6364 45.8182 13.6364C51.2121 13.6364 56.2121 14.3939 60.8182 15.9091C65.4545 17.4242 69.5606 19.6364 73.1364 22.5454C76.7121 25.4242 79.6212 28.9545 81.8636 33.1364C84.1364 37.3182 85.5909 42.1061 86.2273 47.5Z" fill="white"/>
<path d="M87 7.375H102.062C106.229 10.5833 110.146 14.875 113.812 20.25C117.479 25.625 120.438 31.9583 122.688 39.25C124.979 46.5417 126.125 54.6667 126.125 63.625C126.125 72.5833 124.979 80.7083 122.688 88C120.438 95.2917 117.479 101.604 113.812 106.938C110.146 112.312 106.229 116.625 102.062 119.875H87C95.4583 114.083 102.25 106.396 107.375 96.8125C112.5 87.1875 115.062 76.125 115.062 63.625C115.062 51.125 112.5 40.0833 107.375 30.5C102.25 20.875 95.4583 13.1667 87 7.375Z" fill="white"/>
<path d="M76.125 18.1992H87.8926C91.1478 20.7057 94.2077 24.0586 97.0723 28.2578C99.9368 32.457 102.248 37.4049 104.006 43.1016C105.796 48.7982 106.691 55.1458 106.691 62.1445C106.691 69.1432 105.796 75.4909 104.006 81.1875C102.248 86.8841 99.9368 91.8158 97.0723 95.9824C94.2077 100.182 91.1478 103.551 87.8926 106.09H76.125C82.7331 101.565 88.0391 95.5592 92.043 88.0723C96.0469 80.5527 98.0488 71.9102 98.0488 62.1445C98.0488 52.3789 96.0469 43.7526 92.043 36.2656C88.0391 28.7461 82.7331 22.724 76.125 18.1992Z" fill="white"/>
</g>
<defs>
<clipPath id="clip0_1_2">
<rect width="128" height="128" fill="white"/>
</clipPath>
</defs>
</svg>
